# xmcd
#
# Track frame offsets: 
#        150
#        25825
#        62342
#        90207
#        128135
#        159255
#        190975
#        208875
#        227917
#        243798
#        281284
#
# Disc length: 3989 seconds
#
# Revision: 0
# Processed by: cddbd v1.5.2PL0 Copyright (c) Steve Scherf et al.
# Submitted via: ExactAudioCopy v0.95b3
#
DISCID=840f930b
DTITLE=Grace Jones - Ultimate Collection - 32bit RMST
DYEAR=2006
DGENRE=R and B
TTITLE0=Pars
TTITLE1=Private Life - Dub Version
TTITLE2=Used Me
TTITLE3=She's lost control
TTITLE4=Niple to the Botle 12"
TTITLE5=My Jamaican Guy 12"
TTITLE6=Ring of Fire - Demo
TTITLE7=Man around the house
TTITLE8=Living my life
TTITLE9=Slave to the Rhythm - Hot Blooded Version
TTITLE10=Sex Drive
EXTD=
EXTT0=
EXTT1=
EXTT2=
EXTT3=
EXTT4=
EXTT5=
EXTT6=
EXTT7=
EXTT8=
EXTT9=
EXTT10=
PLAYORDER=
